<svg xmlns="http://www.w3.org/2000/svg" xmlns:xlink="http://www.w3.org/1999/xlink" xml:space="preserve" id="Layer_1" x="0" y="0" style="enable-background:new 0 0 99.4 73" version="1.1" viewBox="0 0 99.4 73">
  <defs>
    <path id="path8" d="M50.7 24.3z" class="st1" style="stroke:#000;fill:none"/>
  </defs>
  <style id="style2" type="text/css">
    .st1{fill:#8ab0c7}.st2{fill:none;stroke:#979796;stroke-width:.2096;stroke-linecap:round;stroke-linejoin:round}.st4{fill:#979796}
  </style>
  <g id="g28">
    <path id="path4" d="m71.8 23.8-2-.2m1.8 1.3-2-.2m2 1.1-1.9-.3m1.6 1.4-1.9-.4m1.7 1.4-1.9-.5m1.6 1.5-1.9-.6m1.6 1.6-1.8-.6m1.4 1.5-1.8-.7m1.4 1.7-1.8-.9m1.4 1.9-1.8-1m1.2 1.8-1.7-1m1.1 1.9-1.7-1.1m1.2 2L66 34.3m.9 1.9L65.4 35m.9 2-1.5-1.3m.8 2.1-1.4-1.4m.7 2.1-1.4-1.4m.6 2-1.3-1.4m.5 2.1-1.2-1.6m.3 2.3-1.1-1.6m.3 2.1-1-1.7m.1 2.3-1-1.7m.1 2.2-.9-1.8m-.1 2.3-.8-1.8m-.1 2.2-.7-1.8m-.3 2.1-.6-1.8m-.4 2.1-.6-1.9m-.4 2.2-.5-1.9m-.4 2.2-.4-1.9m-.7 2-.3-1.9m-.7 2-.2-1.9m-.9 2-.1-2m-.9 2v-2m-1 2 .1-2m-1.2 2 .2-2m-1.2 1.9.2-2m-1.2 1.8.3-1.9M44.6 44l.4-1.9m-1.3 1.7.6-1.9m-1.7 1.5.6-1.9m-1.5 1.6.7-1.8m-1.7 1.4.8-1.8m-1.7 1.4.9-1.8m-1.9 1.3 1-1.8m-1.9 1.3 1-1.7m-1.8 1.1 1.1-1.6m-1.9 1 1.2-1.6m-2.1.9 1.3-1.5m-2 .9 1.4-1.4m-2.2.7 1.4-1.4m-2.1.6 1.4-1.4m-2.2.7 1.5-1.3m-2.1.4 1.6-1.2m-2.2.4 1.6-1.1m-2.1.2 1.7-1m-2.3.2 1.8-1m-2.3 0 1.8-.9m-2.2 0 1.8-.8m-2.2-.2 1.8-.7m-2.1-.3 1.8-.6m-2.2-.3 1.9-.6m-2.1-.5 1.9-.4m-2.1-.6 1.9-.4m-2.1-.6 2-.2m-2.1-.8 2-.2m-2.1-.8 2-.1m-2-1h2m-2-1 2 .1m-1.9-1.1 2 .2m-1.9-1.3 1.9.3m-1.7-1.3 1.9.4m-1.7-1.4 1.9.5m-1.6-1.5 1.9.6m-1.6-1.6 1.8.6m-1.5-1.6 1.8.7m-1.4-1.7 1.8.8m-1.3-1.7 1.8.9m-1.3-1.8 1.8 1m-1.2-1.9 1.7 1m-1.2-1.8 1.6 1.1m-.9-2 1.6 1.2m-1-2 1.5 1.3m-.9-2.1 1.4 1.4m-.7-2.1 1.4 1.4m-.6-2.1 1.4 1.4M35.5 5l1.3 1.5m-.5-2.1L37.5 6m-.3-2.3 1.1 1.7m-.2-2.2 1 1.7M39 2.7l1 1.8m-.1-2.3.9 1.8m.1-2.2.8 1.8m.1-2.2.7 1.8m.3-2.2.6 1.9m.4-2.1.5 1.9m.5-2.1.4 1.9m.6-2.2.3 1.9m.8-2 .2 2m.8-2.1.2 2m.8-2.1.1 2m1-2v2m1-1.9L50.8 2M52 .2l-.2 2M53.1.3l-.3 1.9M54.1.5l-.4 1.9M55.1.7l-.5 1.9M56.1 1l-.6 1.9m1.6-1.6-.6 1.9M58 1.7l-.7 1.8M59 2.1l-.8 1.8m1.7-1.3-1 1.8m1.9-1.3-1 1.7m1.9-1.2-1.1 1.7m2-1.1-1.2 1.6m2-.9-1.2 1.5m2-.9L62.9 7m2.1-.8-1.4 1.4m2.1-.7-1.4 1.4m2.1-.6L64.9 9m2.1-.5-1.5 1.2m2.2-.4-1.6 1.1m2.2-.2-1.7 1m2.2-.1-1.7 1m2.2-.1-1.8 1m2.2-.1-1.7.8m2.2.2-1.8.7m2.1.2-1.8.6m2.1.4-1.9.6m2.3.4-1.9.5m2.1.6-1.9.4m2.1.5-1.9.3m2 .7-2 .2m2.1.9-2 .2m2 .8h-2m2 1.1h-2" style="stroke:#000;fill:none;stroke-width:.369;stroke-miterlimit:10"/>
    <use xlink:href="#path8" class="st1" style="stroke:#000;fill:none"/>
    <use xlink:href="#path8" id="path10" class="st1" style="stroke:#000;fill:none"/>
    <path id="path12" d="M34 17s-1 .6-1 2.3c0 1.5.2 3.6-.4 4.7-.1.1-.1.2-.2.2 0 0-.5.6-.1.6s.6 0 .8.2l.2.2s.4.1.9 0m1.2-8.1s-.6.7-.6 1.8.3 2.7.3 3c0 .2-.1.8-.2 1.4-.1.3-.2 1.1.1 1.9m-2.2-9.9h0c-.1.1-.5.4.2 1.4m5.3-1.6s-.1 0-.2.1c-.2.2-.6.5-1.1.8-.6.5-1.3-.2-1.6-.4s-1 0-1.7.1c-.4.1-.7-.2-1-.4-.2-.2-.3-.3-.3-.4-.2-.2-.2-.8-.1-.9.2-.2.6-.7.6-.7.8-1.4 1.5-1.5 1.5-1.5m7.3 9.1s-.1.2-.1.3-.1.3-.1.5c0 .1 0 .2-.1.3 0 0-.2.2-.3.2-.1 0-.3 0-.4-.1l-.3-.3-.1-.1c-.1-.1-.2-.3-.2-.6.1-.3.2-.6.2-.7s-.3-1.2-.3-1.2-.6-.8-.7-1c-.1-.2-.4-.5-.6-1.4-.1-.3-.2-.6-.2-1 0 0-.1-.2-.1-.7v-.3c.1-.6.1-1.5.1-1.7v-.2c.1-.3.2-.9.2-1.3.2-.5 1-1.8 1-1.8m2 11.1h0m-3.5-5.7-1-.3c-.2-.1-1-.4-1.3-.4-.2 0-.6-.2-.9-.3-.2-.2-.6-.8-.6-1s.1-.9.2-1.4c0-.2.1-.2.1-.3.2-.5.6-.6.9-.9.3-.2.6-.8 1-1s1.2-.4 1.9-.6c.7-.2 2 0 2 0h.1c.2 0 .6.1 1 .2.1.1.2.2.3.2l.6.6c.2.4.2.9.1 1.3-.1.2-.2.5-.3.7-.2.3-.4.5-.6.6-.2.1-.5.2-.6.5-.1.3-.3 1.1-.6 1.4 0 0-.1 0 0 .2 0 .1 0 .1.1.2.2.3.6 1.2.6 1.9 0 .6.1 1.4.2 1.8.2.6.5 1.2.6 1.2s.4.1.5.2.4.2.6.3c.1 0 .2.1.2.2s0 .1-.2.2c-.3.1-.6 0-.6 0l-.2-.1H42c-.1 0-.2.1-.3.2h0m-3.2-7.9c-.6.2-1-.3-1.6-1-.5-.6-.2-1.2.6-2 .6-.7 2.6-.9 3-1m-.1 5.9.8-.4.6-.3s1-.3 1.5-.6c.2-.1.3-.2.3-.2v-.6m.3-.9s.1.6-.2 1c-.1.1-.1.2-.2.2l-.5.2m3-1.6s.2.2.3-.1c.1-.3.4-1.1.5-1.3s.2-.2.2-.2m-4.7 2.1 1.6-.4.1.1.6.3s.4.2.6.2c.2 0 .2-.1.2-.2s.1-.2.2-.2.2-.2.2-.2.2 0 .2-.1.2-.2.2-.2m-4.6-2.2c-.1-.2.2-.5.2-.6h.2v-.1c0-.3 1-.5 1-.5 0-.7 1.7-.4 1.7-.4.8-.2 1.5.4 1.5.4.6-.1 1 .6 1 .6.6.2.3 1 .3 1.1 0 .1 0 .2-.3.2-.1 0-.2 0-.3-.1-.2-.1-.2-.1-.6-.2l-.4-.3s0 .3-.1.5c-.2.2-.3.2-.4.2-.1 0-.3.2-.5.3-.2.1-.3.3-.7.3 0 0-.6.2-.8 0-.2-.1-.6.1-.6-.1 0-.1-.2-.2-.3-.4m2.8 1.5.2.2m-4.2 2.6s-.1.4 0 .6c0 0 .3 1 1.4 1 .1 0 1 .1 1 .1m-.2-2.6s.6.5.7.6m-4 7.6-1 .5s-1 .2-1.3.3c-.2 0-1.3.2-1.2.8 0 .6-.1.8.2 1s.4.2.4.2m.7-.4-.8.4c-.2.1-.3.2-.5.4-.2.3-.5.6-.6 1v.2c0 .3.2.6.4.7m-.3-1s-.7-.5-.8-.5-.2 0-.5-.1c-.2 0-.5-.1-.6-.1-.2 0-1 .5-1 .9-.1.5-.4 1.7.7 1.6 0 0 .4-.2.6-.4l.1-.1c.2-.2 1-.6 1.1-.6h.8c.2 0 .4.1.5.2.2.2.2.8.3.9.1.1.7.6.7.6m4 2.5h0l.5.6.2.4s.2.2.2.1c.1 0 .2-.1.1-.2-.1-.2-.2-.6-.2-.6s-.2-.4-.4-.6l.5.2.6.4s.1 0 .2-.1c0-.1 0-.2-.1-.2-.1-.1-.5-.6-.5-.6s-.2-.1-.3-.1l-.2-.2c0-.1-.2-.3-.3-.3-.1-.1-.5-.3-.6-.3-.2 0-.5-.1-.5-.3 0-.2.5-1.2.5-1.2l.3-.6.2-.2c.2-.3.4-.8.4-1 0 0 .7-.1.8-.5 0-.4.3-.9-1.9-1.7 0 0-.6.4-1 1.1-.2.3-.3.7-.5 1.2-.1.5-.2 1-.2 1.5s0 1 .1 1.4m1.8 2.2h0l.5 1s.2.1.2 0c.1 0 .1-.1.1-.2s-.1-.4-.1-.4l-.2-.4-.1-.2-.1-.2M40 28.8c.1.7.2 1.3.5 1.5 0 0 .3.2.4.3 0 0 .3.2.4.3 0 .1.1.3.1.3l-.2.2s-.1.2.1.2c0 0 .1.1.1 0 .1-.1.2-.1.2-.1s.3-.2.4-.2v-.2m-4.2-7.3.2.2c.5.5 1.5 1.6 2 1.9m-5.3 1.4s.1.6.3 1l.1.1c.3.3 1.1.8 2.1.9 1 .1 2.2.2 2.8-.4h0m-4.9-.5s-.2 1.2.5 1.9l.1.1c.9.7 1.6 1.5 2.6 2s3.1 1.4 3.3 1.4c.1 0 .2.1.2.1.4.2 1.2.5 1.4.6m-7.6-4.2s-.2.2-.2.4 0 .6-.2 1-.6 1.2-.5 1.4c0 .2.5 1 .5 1 0 .1.2.2.2.2h.4l.2-.1c0-.1 0-.2.1-.2s.3-.3.2-.3c-.1 0-.2-.1-.3-.1-.1 0-.2 0-.2-.2-.2-.2-.2-.2-.2-.3 0-.1.2-.2.2-.2s1-.7 1.1-.6c.2 0 .5.1.6.2.2.2 1.4 1.2 1.7 1.3.2.2 1.4.8 1.9.8.6.1 1.5.2 1.9.4.4.1 1.3.3 1.7-.2.4-.4.6-.5.6-.7 0-.2.2-1-.1-1.4s-.5-.6-.5-.6m-1.6-11.5s1.1.3 1.7.6h0l.2.2m-1.6 5.9s.5 1 .5 1.3c0 .2.3 1 .5 1.7.2.4.2.7.2.8.1.2.3.5.2 1V32c0 .1-.1.2-.1.2-.4.7-.5 1.6-2.4 1.5l-.5-.1m3.2-7.4c1.1-.2 1.3-1.5 1.4-1.9 0-.1-.1-.4-.1-.4l-.2-.8c-.1-.2-1.2-1.8-1.2-1.8m-.1-.1s-.2-.7.2-.8h.1l.2-.2.4-.4c.2 0 .2-.2.3-.2.1-.1.4-.5.8-.4.4.1 1.4.1 1.5.2s.7.5.8.5h.2c.1 0 .4.1.5.3 0 0 .2.2 0 .5 0 0 .5.2.6.5.1.2.2.6-.2.8 0 0-.5.1-.6.1 0 0 0-.2-.2-.2-.1 0-.2 0-.3.1-.1.1-.5.3-.6.3-.1 0-.3.1-.3.2s-.1.2-.5.4l-1.5.1m.3.2s.2.3.3.5.7.4 1 .3c.2-.1.2-.2.2-.2s.2-.2.3-.2c.1 0 .2-.2.2-.2s.4.1.4-.2v-.7s.3-.2.3-.6m-1 1.8-.2-.1m.7-.2s-.2-.1-.2-.2m-6.2 3.7s.3.4 1 .4h0c.8-.2 1.4-.6 1.7-1 .3-.6.6-1.5-.4-2.8m5.3-7.4c0 .6.2.6.3.7.1.1.1.2.1.2s.2 0 .3-.1l.4-.2c.3-.2.1-.4.2-.6.1-.2-.2-.4-.2-.4s.1 0 .1-.1-.2-.2-.2-.2v-.2c-.1-.1-.1-.4-.1-.4l-.1-.2c-.1-.2-.2-.3-.2-.3 0-.2-.2-.2-.2-.2.1-.3-.3-.3-.3-.5s-.3-.3-.3-.3c-.2-.2-.5-.2-.5-.2-.1 0-.6.2-.6.2s-.2-.1-.5.1c0 0-.5-.1-.8.4l-.4.4s-.4 1.2-.5 1.6 0 .3-.1.5-.9 1-.5 1.2c.4.3.6.3.6.6.1.2 1.3.3 1.5.2.2-.1.4-1 .4-1 0-.2 0-.4-.1-.6 0-.1-.1-.2-.1-.3-.2-.3-.2-.6-.2-.8s-.1-.4-.2-.6c-.1-.2-.3-.3-.2-.6.1-.3.3-.7.4-.8.2-.1.5-.2 1.1-.1 0 0 .2.2.3.2.1 0 .2.2.4.2s.2.2.2.3m.3.2c0 .1.1.7.1.8s.2.6.1.6c-.2.1-.3.2-.5.3-1.1 0-1.8-.2-1.8-.2m-2.4 1.2s-1.8 1-1.4 3.8m4.9-3.1.1 2m-3.5 9.9s-.2-2.4-.1-2.8m2.4-16.4s0-.6.2-.8c.2-.1.3-.3.6-.3h.2c.3.2 1.2.6 1.4 1 .2.3.1.6 0 .6s-.2.2-.2.2c-.2.1-.6.2-.6.2M52 7.2h0m-3.2 2.1s-.3-.6.2-1.2.7-.7 1-.7.6-.1.6-.1.7-.6 1.4-.1m-1.4 7.3s.4-.9.4-1c0 0 .6-1 0-2.6-.1-.2-.5.2-.6.2h0m4.2 1.3s-.1.5-.2.5-.3-.4-.3-.4l.2-.8.1-1v-.1l.7-1.2c0-.1-.1-.6-.2-.6s-.3-.4-.4-.5c0-.1-.1-.5-.1-.5s-.4.5-.5.6c-.2.1-.6 0-.6 0-.1 0-.3.1-.4.2-.1.2-.2.5-.3.6-.1.1-.2.5-.2.7 0 .1-.1.2-.1.2-.1.1-.1.2-.2.2-.1.2 0 .2.1.5 0 .2 0 .6-.1.7 0 .1-.2.1-.2.1-.1 0-.2.2-.2.2s.1-.3.1-.4c0-.1-.2-.5-.2-.6-.1-.2-.2-1.2-.2-1.4s.2-.9.2-1c0-.1.2-.6.3-.8.1-.2.1-.3.2-.4h0c.2-.2.3-.4.4-.5.1-.1.8-.2.8-.2s.9-.1 1.4.4c0 0 .6 0 .6.3.2.3.5.9.4 1 0 .2-.2.3-.1.4 0 .1 0 .6-.1.7v.1c-.1.1-.1.2-.1.3 0 .2.2.5.1.6l-.2.2c0 .1 0 .4-.1.6-.1.1-.2.2-.2.3 0 .1.1.6-.1.7l-.2.2h0c-.1 0-.1 0-.2.1h.1zm-2.2-2.3s.2.9.7 1c0 0 .7 0 1.4-.4m3.8 1.7h0m-2.7-3s1.4.5 2.3 2c0 0 .3.6.3.9v.2m.8.6s-.2-.3-.7-.7c-.3-.1-.6-.4-.9-.4m-2.5.2s-.2 1 1.1 1.9M52.5 17l-1.4-.6m.9 14.1c.2-.2.4-.6.2-1.1-.2-.9-.2-1-.1-1.3.1-.2 1.1-1.4 1.9-2.8.1-.2.2-.3.2-.4.3-.6.5-1.3.5-1.8l.6-1.4h0m-4.8 11.9-.2 1 .4-1.1.8-2 1 2.6-.6-3.7V30s-.4 0-.6.3-.4 1-.4 1.2c-.1.2-.2.4-.2.5h0c-.2 0-.2-.3-.2-.3l-.1-1.4-.2-.2c-.2-.2-.1-.6-.1-.8 0-.3.3-.7.5-1.1.1-.2.2-.8.4-1.3.2-.6.4-1.3.4-1.3.1-.8.2-1.4.4-1.8.3-.9.6-1.1.7-1.2.1-.1.3-.6.3-.6m-2 10.1-.2 1.5m2.5-14.5s-.1.3-.2.4c-.1.1-.6.8-.6 1.2s.3 1.3.3 1.3h.2l2.1-.2s.2 0 .3-.1.5-.2.6-.3c.2-.3 1-1.4 1-1.4m-9.6 14.3 3.2 1 6-1.7-3.5-.6-2.2.5-.2.1-3.3.7h0m0 0v.9l3.3 1.1 5.9-1.8v-.9m-6 1.9v.8m2.3-18.7s-.2-.2-.2-.3c.1-.2-.2-.6 0-.6.1-.1.1-.3.2-.5l.2-.2c.4-.1.2-.5.6-.6.3-.1.6-.3.6-.3.1 0 .5-.2.6-.2.1 0 .2 0 .3-.1h.4c.1 0 .2.2.4.2.2.1.2.1.3.1.2 0 .6.2.7.2s.4 0 .3.2c0 .1-.1.2-.1.2.1 0 .2.2.2.2 0 .1-.1.2-.1.3 0 .1.2.3.2.5 0 .1.1.2 0 .3s-.2.1-.1.2 0 .2-.1.2l-.2.2c-.1.1-.2.3-.3.4s-.3 0-.3.2c0 .1-.3.2-.4.2-.1 0-.5.2-.6.1-.1-.2-.1-.4 0-.6 0-.1.2-.2.2-.2v-.2c0-.1-.2-.2-.1-.4.2-.2.5-.8.6-1 .1-.2 0-.3 0-.4s-.5-.2-.6-.3c-.1 0-.6-.2-.7-.2-.1 0-.5 0-.6.1-.2.1-.5.2-.6.2l-.3.3-.3.5c.3 0-.1.4-.2 1.3.1.2.1.5.1.7 0 0 .1.4.3.7.1.1.6.5.6.5l.2.1c.1 0 .2.1.2.2.1.2.2.7.6.6l.2-.2s.3.2.4.2.6.3 1.3-.6c.1-.1.2-.2.2-.3 0 0 .2-.6.5-1 .1 0 .2-.2.3-.2.7-.2 1-1.2 1-1.2v-.3m-.5 2.3c0 .2-.3 1.3-.3 1.5s-.1.5.1.7c.1.3.2 1 .2 1.3 0 .3-.2 1.1-.2 1.6 0 .1 0 .2-.1.2l-.1.2-.5.8s-.6 1.3-.8 1.6c-.1.3-.6 1.3-.1 2.7l.2.8c.4 1.2.5 1.3 1 1.4m1.2-4.2s-.2 2-.5 2.6c-.2.6-.4 1-.4 1.3s-.2.8-.2 1c-.1.1-.2.2-.2.5 0 .1-.1.2 0 .3 0 .3.1.6.2.6.2 0 .6-.1.6-.1s.3.1.5.2h.5c.1-.1.3-.2.5-.2.1-.1.4-.3.4-.6 0-.2-.5-.9-.5-.9s0-.1-.1-.2c-.1-.3-.2-.9 0-1.2.2-.4 2.6-3.8 2.5-6.1m1.3-.4s-.8-.1-1.4.3h0c-.2.1-.2.2-.3.3-.4.6-1.9 1.8-2.9 2.6-.3.2-.6.5-.8.6-.1.1-.4.5-.4.5s.3-5.7 4.1-10m-6.5-3.9s.3-.5.9-.6c.2-.1 2.6-1.4 4.9-1M58.7 16c0-.1.6-2.2 2-2.7.5-.2 1-.1 1-.1.2.1 1-.2 1.9.5l.7-.2c1.2-.2 1.8.9 1.8 1.5s-.9 1.5-.9 1.5l-1 .9c-.2.5-1.2 1-1.5 1.1-.4.3-.9.3-1.4.2-1.4-.3-2.7-2-2.7-2m1.6 14.4s.9 1 1.7 1.2m-6.5-12 .2-.2m-4.8 2.5s-.1-1.1-.1-1.5c0-.2.2-1.4.5-2.4m.4 3.3s-1.8.7-1 2.3m.1 0c-.3.4-.3.4-.3.5s-.2.7-.2.8c0 .1 0 .2-.1.3-.1 0-.3.2-.3.2s-.2-.3-.3-.4c-.1 0-.2 0-.2.1.1.2-.4.1-.1.3l.3.2s.3.2.5.3c.2.1.5 0 .6-.2m.1-2.1h0m1.1-.5s-.3-.3-.8.1c-.3.3-.4.3-.4.3h0m-.1 1.2c0 .1-.1.6.2.6 0 0 .2 0 .2-.2s.2-.4.2-.5m-.4.8s0 .2-.1.4c0 .2-.1.3-.1.4-.1.1-.2.5-.2.6 0 0 .2.4.3.1l.2-.2.2-.3m2.1-16.4s.2.1.3.2m-.1-.5s0 .1.2.1m-3.9 4.6.6-.2m-1.9-.7s.4-.5.6-.3m-.2.1h0m-.2 8.7h0m-2.6-12.1-.1.2m7.3-1.3h0m1.3.5v.2m.6 9.2h0m-.4 0 .9-.2m6.7-.4-.8 3.1m1.4-3.4c-4.9-1.4-1.8-4.6-1.2-5.1m-15.9-3 .6.3m6.5-1.4s.3.2.6.2m.7.4s.3.2.6.2m-5.9 12.6s-.4-.1-.5-.2m-3.8-8.1h.2l.6.1c.1 0 .6.1.6.1.1.2-.2.2-.2.2l-.5.1.2.2c.2.2-.2.5-.2.5.1.5-.2.6-.2.6-.5.3-1 .1-1.3-.2h-.3c-.3-.2-.2-.5-.2-.7 0-.3.2-.6.2-.7.1-.1.5-.2.5-.2l.3.1h.3v-.1s.2.2.1.3-.3.2-.5.1l-.1-.1m6.8-4.8.3 1.2m13.4 21.3s-1.9-.4-2-3.4m-17.6-.2s1.8 1.8 2.3 1.9m.9-4.6c-.1 1-.2 1.6-.2 1.6-.2 1.3-.8 3-.8 3s.7 0 1.4-.2 1-.7 1.7-.4m4.1-5.2c.9-.2 1.7-.3 2.3-.4h0c.7-.1 1.1-.1 1.1-.1m-3.5.5v2.2c0 .2.1.8-.2 1.1-.2.2-.4.7-.4 1v.6c0 .1-.2.7-.2.7s-.1.5.4.6c.5.1 1.1.1 1.4-.1.2-.2.5-.4.4-.6s-.2-.3-.4-.5-.2-.5-.2-.6c0 0 .1-.2.1-.4 0-.1 0-.6.1-.7.1-.2 1-1.4 1-1.4s.4-.6.6-2.2m-7.5-13.4s-.1-.2-.2-.2c-.1-.1-.1-.2-.1-.2 0-.1-.1-.1 0-.2s.2 0 .2 0 .1.2.2.2.1 0 .2.5v.2c0 .2-.3.2-.6.4-.4.2-.9 0-.9 0l-.6-.6c-.1-.1-.1-.1-.2 0s0 .1-.2.1-.4-.2-.4-.2l.3-.2s.4-.2.8-.2h.2c.3 0 .5-.1.7.1l.4.2M32.4 24.7s-1-.2-1.1-.4v-.2l.3-.3c0-.1 0-.1.2-.3.2-.3.4-.9.4-.9l.2-.6.2-3c0-1.4.9-2.2.9-2.2m5.2.1s-1.6.2-3.3.2c-.4 0-.9-.1-1.3-.2-.2-.1-.5-.1-.7-.2-.1 0-.2-.1-.3-.1 0 0-.7.2-1 2.1 0 0-.1 1.8-.3 2.5-.5 1-1.4 1.9-1.4 1.9s-.2.3.1.6l.7.5m34.5-8.1c.4 1 .7 2.5.9 4.5.5 3.7-.6 7.2-.9 8.4s.2 3 .7 3.2c0 0-2.2.2-3.1.2h-.9c-1.5-.1-3-.2-3.1-.2" class="st2" style="stroke:#000;fill:none"/>
    <path id="path14" d="M57.7 28.4s-1 .8.5 1.2" style="stroke:#000;fill:none;stroke-width:.1897;stroke-linecap:round;stroke-linejoin:round"/>
    <path id="path16" d="M65.6 19.4s.2 1.4 0 2.9.3 5.9.2 6.8" class="st2" style="stroke:#000;fill:none"/>
    <path id="line18" d="m62.5 15.5.8-.8" class="st2" style="stroke:#000;fill:none"/>
    <path id="path20" d="M50.7 21.4s.7-2.3 1.2-2.6m-7.7 3.4s1.8.7 2.1 1.5m-7.2-5.8s-.1.8.2 1.9c.2 1.1.6 2.2.6 2.2m8.2-4.3s1.8.4 2.1-.9m-4.1 8.6c-.1.4-.1.9-.4 1.7 0 0-.2.5-.3.8-.2.5-1.3 1.4-1.3 1.4m-2.6-5.6s.4-.6 1.4-.6h.8m13.6-7.6s1.4-.2 1.4 1.2m-8.9-2c.3-.2.4-.3.4-.3s-.5-.3-.7-.4c-.2-.1 0-.3 0-.3m7.8 4.5s-.1.7-.2 1.1m.4-.2 1.9-.1s.4-.1.7-.2m1.3 8.8c1.1 1.3 2.4 2.6 2.4 2.6m-4.9-9s0 .6.1 1.6" class="st2" style="stroke:#000;fill:none"/>
    <path id="line22" d="m46.5 23.4-.2.2" class="st2" style="stroke:#000;fill:none"/>
    <path id="path24" d="M78.2 72c.2.2.9 1 2.2 1 1.5 0 2.4-.9 2.4-2.1 0-1-.8-1.6-1.3-1.8.5-.2 1.1-.9 1.1-1.7 0-1.2-1-2-2.2-2-1.2 0-2 1-2 1-.1.1-.1.2 0 .2l.4.3c.1.1.2.1.2 0 .2-.2.6-.6 1.3-.6.6 0 1.2.5 1.2 1.2 0 .6-.5 1.1-1.5 1.1h-.6c-.2 0-.2.1-.2.2v.5c0 .2.1.2.2.2h.6c1.1 0 1.7.6 1.7 1.3 0 .7-.6 1.2-1.4 1.2-.8 0-1.4-.6-1.4-.6s-.2-.1-.3 0l-.4.4c-.1 0-.1.2 0 .2M75 72c-1.2 0-1.6-1.2-1.5-2.2.1-.2.6-.8 1.4-.8s1.4.6 1.4 1.4S75.8 72 75 72m-2.6-2c0 1.7.8 3 2.6 3 1.3 0 2.4-1.1 2.4-2.5 0-1.5-1.1-2.3-2.2-2.3-.7 0-1.4.3-1.4.4.3-1.4 2.1-2.2 2.6-2.4.2-.1.2-.2.2-.3l-.2-.5-.2-.2c-1.2.5-3.8 1.8-3.8 4.8m-4.9.9c0-.6.5-1.2 1.4-1.3.9.2 1.4.7 1.4 1.3 0 .7-.6 1.2-1.4 1.2s-1.4-.5-1.4-1.2m1.4-2.3c-.8-.2-1.2-.6-1.2-1.1 0-.6.6-1.1 1.2-1.1.7 0 1.2.5 1.2 1.1 0 .6-.4 1-1.2 1.1m-2.5 2.3c0 1.2 1 2.1 2.5 2.1s2.5-.9 2.5-2.1c0-1-.8-1.6-1.3-1.8V69c.5-.2 1.1-.8 1.1-1.7 0-1.2-1-2-2.3-2-1.3 0-2.2.8-2.2 2 0 .8.6 1.4 1.1 1.7-.5.3-1.4 1-1.4 1.9m-5.1 1.9H65c.1 0 .2-.1.2-.2v-.5c0-.1-.1-.2-.2-.2h-1.2v-6.2c0-.1-.1-.2-.2-.2H63l-1.6 1.4c-.1.1-.1.2 0 .2l.2.4c0 .1.2.1.2.1l1-.5V72h-1.5c-.1 0-.2.1-.2.2v.5c-.1.1 0 .1.2.1m-9.8-3.6c0-1.5 1.3-2.8 2.8-2.8s2.8 1.3 2.8 2.8c0 1.5-1.3 2.8-2.8 2.8-1.5-.1-2.8-1.3-2.8-2.8m-1.1 0c0 2.2 1.7 3.8 3.8 3.8 2.2 0 3.8-1.7 3.8-3.8 0-2.2-1.7-3.9-3.8-3.9-2.1 0-3.8 1.7-3.8 3.9m-7.8 3.5c0 .1.1.2.2.2h.6c.1 0 .2-.1.2-.2v-5.2l4.6 5.5h.3c.1 0 .2-.1.2-.2v-7.2c0-.1-.1-.2-.2-.2H48c-.1 0-.2.1-.2.2v5.1l-4.6-5.3H43c-.1 0-.2.1-.2.2v7.1zm-5.9-2.4 1.3-2.9h.1l1.4 2.9h-2.8zm-2 2.5h.6c.2 0 .2-.1.2-.2.2-.5.5-1 .6-1.4h3.5l.6 1.4c.1.1.1.2.2.2h.6c.2 0 .2-.2.2-.2l-3.3-7.2c0-.1-.2-.1-.2-.1h-.1c-.1 0-.2.1-.2.1l-3.3 7.2c.4.2.5.2.6.2m-5-.1c0 .1.1.2.2.2h3.8c.1 0 .2-.1.2-.2v-.6c0-.1-.1-.2-.2-.2h-2.9v-6.3c0-.1-.1-.2-.2-.2H30c-.1 0-.2.1-.2.2v7.1zm-3.2 0c0 .1.1.2.2.2h.7c.1 0 .2-.1.2-.2v-7.1c0-.1-.1-.2-.2-.2h-.7c-.1 0-.2.1-.2.2v7.1zm-9.8-.1c0 .2.1.2.2.2h.7c.1 0 .2-.1.2-.2l.8-4.8h.1l1.9 4.9c0 .1.1.1.2.1h.2c.1 0 .2-.1.2-.1l1.9-4.9.8 4.8c0 .1.1.2.2.2h.7c.2 0 .2-.1.2-.2l-1.4-7.2c0-.1-.1-.2-.2-.2h-.2c-.1 0-.2.1-.2.1l-2.2 5.5h-.1l-2.2-5.5c0-.1-.1-.1-.2-.1h-.2c-.1 0-.2.1-.2.2l-1.2 7.2z" class="st4" style="fill:#000"/>
    <path id="path26" d="M90.2 55c0-1.9 1.6-3.5 3.5-3.5s3.5 1.6 3.5 3.5-1.6 3.5-3.5 3.5-3.5-1.6-3.5-3.5m-2 0c0 3 2.5 5.5 5.5 5.5s5.5-2.5 5.5-5.5-2.5-5.5-5.5-5.5c-3-.1-5.5 2.4-5.5 5.5m-10.6 0c0 3 2.5 5.5 5.5 5.5 1.4 0 2.7-.5 3.7-1.5.1-.1.2-.3 0-.4l-1-1c-.1-.1-.2-.1-.4 0-.6.6-1.4.9-2.3.9-2 0-3.4-1.6-3.4-3.5s1.4-3.6 3.4-3.6c.9 0 1.7.3 2.4.9.2.2.2.2.4 0l1-1c.2-.2.2-.3 0-.4-1-1-2.2-1.4-3.7-1.4-3.2-.1-5.6 2.4-5.6 5.5m-4 5c0 .2.2.3.3.3h1.4c.2 0 .3-.2.3-.3V49.9c0-.2-.2-.3-.3-.3h-1.4c-.2 0-.3.2-.3.3V60zm-11.7 0c0 .2.2.3.3.3h1.4c.2 0 .3-.2.3-.3v-6.6l6.4 7h.4c.2 0 .3-.2.3-.2V49.9c0-.2-.2-.3-.3-.3h-1.4c-.2 0-.3.2-.3.3v6.3l-6.4-6.8h-.4c-.2 0-.3.2-.3.2V60zm-11.3-5c0 3 2.5 5.5 5.5 5.5 1.4 0 2.7-.5 3.7-1.5.1-.1.2-.3 0-.4l-1-1c-.1-.1-.2-.1-.4 0-.6.6-1.4.9-2.3.9-2 0-3.4-1.6-3.4-3.5s1.4-3.6 3.4-3.6c.9 0 1.7.3 2.4.9.2.2.2.2.4 0l1-1c.2-.2.2-.3 0-.4-1-1-2.2-1.4-3.7-1.4-3.1-.1-5.6 2.4-5.6 5.5m-8.4 5c0 .2.2.3.3.3h6.2c.2 0 .3-.2.3-.3v-1.3c0-.2-.2-.3-.3-.3h-4.5v-2.7H48c.2 0 .3-.2.3-.3v-1.3c0-.2-.2-.3-.3-.3h-3.7v-2.5h4.5c.2 0 .3-.2.3-.3v-1.3c0-.2-.2-.3-.3-.3h-6.2c-.2 0-.3.2-.3.3V60zm-6.3 0c0 .2.2.3.3.3h1.4c.2 0 .3-.2.3-.3v-8.6h2.3c.2 0 .3-.2.3-.3v-1.3c0-.2-.2-.3-.3-.3h-6.7c-.2 0-.3.2-.3.3v1.3c0 .2.2.3.3.3h2.3c.1 0 .1 8.6.1 8.6zm-6.6 0c0 .2.2.3.3.3H31c.2 0 .3-.2.3-.3V49.9c0-.2-.2-.3-.3-.3h-1.4c-.2 0-.3.2-.3.3V60zm-8.2 0c0 .2.2.3.3.3H27c.2 0 .3-.2.3-.3v-1.3c0-.2-.2-.3-.3-.3h-3.9v-8.5c0-.2-.2-.3-.3-.3h-1.4c-.2 0-.3.2-.3.3V60zm-10.6-5c0-1.9 1.6-3.5 3.5-3.5s3.5 1.6 3.5 3.5-1.6 3.5-3.5 3.5-3.5-1.6-3.5-3.5m-2 0c0 3 2.5 5.5 5.5 5.5s5.5-2.5 5.5-5.5-2.5-5.5-5.5-5.5c-3-.1-5.5 2.4-5.5 5.5m-6.4-.5v-3.1h1.8c.9 0 1.6.6 1.6 1.5s-.7 1.6-1.6 1.6H2.1zM.1 60c0 .2.2.3.3.3h1.4c.2 0 .3-.2.3-.3v-3.6H4c1.8 0 3.4-1.5 3.4-3.4 0-1.8-1.5-3.3-3.4-3.3H.3c-.1-.1-.3.1-.3.3l.1 10z" class="st4" style="fill:#000"/>
  </g>
</svg>
