<svg xmlns="http://www.w3.org/2000/svg" xml:space="preserve" viewBox="0 0 36 51.947">
  <defs>
    <clipPath id="a">
      <path d="M0 389.57V0h270v389.57z"/>
    </clipPath>
  </defs>
  <g clip-path="url(#a)" transform="matrix(.1333 0 0 -.1333 0 51.947)">
    <path fill="#fff" d="M60.586 132.68h147.83v238.44H60.586z"/>
    <path fill="#4f2987" d="M118.98 248.73c-27.688 16.524-24.914 40.094-13.45 57.422.254.383.325.969.254 1.672-.469 4.129-4.969 14.555-6.8474 17.371-.4961.746-.9063.688-.9375.172-.1445-4.719-5.5352-16.535-13.738-30.117-8.7305-14.527-8.7617-45.938 34.597-47.164.403-.028.52.383.122.644zm7.402 1.227c-16.555 35.336 16.531 58.16 21.941 63.109.762.7.559 1.348.567 2.133 0 11.109-6.36 29.141-8.438 31.707-.304.402-.554.227-.676-.164-2.839-11-17.898-27.324-20.918-30.922-25.554-30.351-19.695-48.844 6.965-66.297.332-.207.762.024.559.434zm5.391 1.492c7.82 37.5 38.328 38.414 41.05 45.527 4.27 11.082-3.523 30.77-5.515 33.114-.196.234-.457.086-.559-.125-4.18-9.106-10.867-17.735-15.777-21.703-6.899-5.571-33.403-25.223-19.848-56.836.18-.379.539-.297.649.023zm5.425-3.262c49.387-1.777 52.903 43.243 53.11 60.098 0 .973-.469 1.055-.735.383-1.433-3.516-7.871-16.078-25.691-23.695-15.899-6.844-25.481-22.332-27.133-36.247-.074-.347.207-.523.449-.539zm11.223-16.859v11.34h-38.965v-11.34h38.965zm-22.773-80.219c.324-1.875 4.406-2.812 5.339 0l9.438 74.813h-22.949l8.172-74.813zm144.34-31.543H.008v270h269.98v-270M0 92.871h18.543l42.855-56.289v56.289h19.84V1.445H64.132L19.851 59.57V1.445H-.001v91.426M126.44 37.5 91.315 92.871h23.492l21.829-36.699 22.199 36.699h22.859l-35.137-54.98V1.446H126.44v36.055m63.89 3.132v52.238h20.106V41.16c0-14.91 7.445-22.606 19.738-22.606 12.265 0 19.707 7.4492 19.707 21.961v52.356h20.117V41.289C269.998 13.594 254.451 0 229.9 0c-24.558 0-39.57 13.711-39.57 40.633"/>
  </g>
</svg>
